# xmcd CD database file generated by Grip 2.95
# 
# Track frame offsets:
#       150
#       18385
#       38407
#       53200
#       75355
#       93592
#       113567
#       130040
#       154102
#       171200
#       194232
#       210275
#       223247
# 
# Disc length: 3368 seconds
# 
# Revision: 3
# Processed by: cddbd v1.4b42PL0 Copyright (c) Steve Scherf et al.
# Submitted via: Grip 2.95
# 
DISCID=a70d260d
DTITLE=Biscuits and Blues - Mean Streets Blues
DYEAR=1900
DGENRE=
TTITLE0=Can't Keep A Good Man Down - Tommy Castro
TTITLE1=The Sista Don't Play - Sista Monica
TTITLE2=Take Your Hands Out My Pocket - andy Santana and the West Coast Playboys with Jr. Watson
TTITLE3=Gallows Pole - Alvin Youngblood Hart
TTITLE4=What's The Matter With You - Lavay Smith and her Red How Skillet Lickers
TTITLE5=Hangin' 'Round, Foolin' 'Round (this ol' town too long) - Big Bones
TTITLE6=Trickie Me - Brenda Boykin
TTITLE7=So Darn Cute - Mark Hummel, Steve Freund on guitar
TTITLE8=In The Kitchen - John Leslie Blues Band, Rusty Zinn on guitar
TTITLE9=The Bottle And The Pen - Preacher Boy
TTITLE10=1% Bounce - Red Archibald and the Internationals
TTITLE11=Help Me - Kevin Russell
TTITLE12=From Time to Time - James Armstrong
EXTD=
EXTT0=
EXTT1=
EXTT2=
EXTT3=
EXTT4=
EXTT5=
EXTT6=
EXTT7=
EXTT8=
EXTT9=
EXTT10=
EXTT11=
EXTT12=
PLAYORDER=
